{
    "asset" : {
        "generator" : "Khronos glTF Blender I/O v1.5.17",
        "version" : "2.0"
    },
    "scene" : 0,
    "scenes" : [
        {
            "name" : "Scene",
            "nodes" : [
                0,
                1,
                2
            ]
        }
    ],
    "nodes" : [
        {
            "name" : "Light",
            "rotation" : [
                0.16907575726509094,
                0.7558803558349609,
                -0.27217137813568115,
                0.570947527885437
            ],
            "translation" : [
                4.076245307922363,
                5.903861999511719,
                -1.0054539442062378
            ]
        },
        {
            "name" : "Camera",
            "rotation" : [
                0.483536034822464,
                0.33687159419059753,
                -0.20870360732078552,
                0.7804827094078064
            ],
            "translation" : [
                7.358891487121582,
                4.958309173583984,
                6.925790786743164
            ]
        },
        {
            "mesh" : 0,
            "name" : "snack1",
            "rotation" : [
                0,
                0.12856034934520721,
                0,
                0.9917017817497253
            ],
            "scale" : [
                0.27145078778266907,
                0.05933861434459686,
                0.27145078778266907
            ]
        }
    ],
    "materials" : [
        {
            "doubleSided" : true,
            "name" : "\u30de\u30c6\u30ea\u30a2\u30eb.015",
            "pbrMetallicRoughness" : {
                "baseColorFactor" : [
                    0.8000000715255737,
                    0.5121172070503235,
                    0.19897638261318207,
                    1
                ],
                "metallicFactor" : 0,
                "roughnessFactor" : 0.5
            }
        },
        {
            "alphaMode" : "BLEND",
            "doubleSided" : true,
            "name" : "\u30de\u30c6\u30ea\u30a2\u30eb.016",
            "pbrMetallicRoughness" : {}
        },
        {
            "doubleSided" : true,
            "name" : "\u30de\u30c6\u30ea\u30a2\u30eb.017",
            "pbrMetallicRoughness" : {
                "baseColorFactor" : [
                    0.8000000715255737,
                    0.14006465673446655,
                    0,
                    1
                ],
                "metallicFactor" : 0,
                "roughnessFactor" : 0.5
            }
        },
        {
            "doubleSided" : true,
            "name" : "\u30de\u30c6\u30ea\u30a2\u30eb.018",
            "pbrMetallicRoughness" : {
                "baseColorFactor" : [
                    0.8000000715255737,
                    0.14006465673446655,
                    0,
                    1
                ],
                "metallicFactor" : 0,
                "roughnessFactor" : 0.5
            }
        }
    ],
    "meshes" : [
        {
            "name" : "\u7acb\u65b9\u4f53.007",
            "primitives" : [
                {
                    "attributes" : {
                        "POSITION" : 0,
                        "TEXCOORD_0" : 1
                    },
                    "indices" : 2,
                    "material" : 0
                },
                {
                    "attributes" : {
                        "POSITION" : 3,
                        "TEXCOORD_0" : 4
                    },
                    "indices" : 5,
                    "material" : 1
                },
                {
                    "attributes" : {
                        "POSITION" : 6,
                        "TEXCOORD_0" : 7
                    },
                    "indices" : 8,
                    "material" : 2
                },
                {
                    "attributes" : {
                        "POSITION" : 9,
                        "TEXCOORD_0" : 10
                    },
                    "indices" : 11,
                    "material" : 3
                }
            ]
        }
    ],
    "accessors" : [
        {
            "bufferView" : 0,
            "componentType" : 5126,
            "count" : 58,
            "max" : [
                1.3173803091049194,
                0.3620491623878479,
                1
            ],
            "min" : [
                -1.3173809051513672,
                -1.0131287574768066,
                -1
            ],
            "type" : "VEC3"
        },
        {
            "bufferView" : 1,
            "componentType" : 5126,
            "count" : 58,
            "type" : "VEC2"
        },
        {
            "bufferView" : 2,
            "componentType" : 5123,
            "count" : 168,
            "type" : "SCALAR"
        },
        {
            "bufferView" : 3,
            "componentType" : 5126,
            "count" : 26,
            "max" : [
                0.9644955992698669,
                0.32188695669174194,
                0.9943647384643555
            ],
            "min" : [
                -0.9644954204559326,
                -0.9729666113853455,
                -0.9943647384643555
            ],
            "type" : "VEC3"
        },
        {
            "bufferView" : 4,
            "componentType" : 5126,
            "count" : 26,
            "type" : "VEC2"
        },
        {
            "bufferView" : 5,
            "componentType" : 5123,
            "count" : 48,
            "type" : "SCALAR"
        },
        {
            "bufferView" : 6,
            "componentType" : 5126,
            "count" : 130,
            "max" : [
                0.9135063290596008,
                0.05899054557085037,
                0.8687750697135925
            ],
            "min" : [
                -0.8917405605316162,
                -0.3277161419391632,
                -0.9314001798629761
            ],
            "type" : "VEC3"
        },
        {
            "bufferView" : 7,
            "componentType" : 5126,
            "count" : 130,
            "type" : "VEC2"
        },
        {
            "bufferView" : 8,
            "componentType" : 5123,
            "count" : 372,
            "type" : "SCALAR"
        },
        {
            "bufferView" : 9,
            "componentType" : 5126,
            "count" : 130,
            "max" : [
                0.9404122233390808,
                -0.3140873610973358,
                0.9260892271995544
            ],
            "min" : [
                -0.9019443392753601,
                -0.7165451645851135,
                -0.955218493938446
            ],
            "type" : "VEC3"
        },
        {
            "bufferView" : 10,
            "componentType" : 5126,
            "count" : 130,
            "type" : "VEC2"
        },
        {
            "bufferView" : 11,
            "componentType" : 5123,
            "count" : 372,
            "type" : "SCALAR"
        }
    ],
    "bufferViews" : [
        {
            "buffer" : 0,
            "byteLength" : 696,
            "byteOffset" : 0
        },
        {
            "buffer" : 0,
            "byteLength" : 464,
            "byteOffset" : 696
        },
        {
            "buffer" : 0,
            "byteLength" : 336,
            "byteOffset" : 1160
        },
        {
            "buffer" : 0,
            "byteLength" : 312,
            "byteOffset" : 1496
        },
        {
            "buffer" : 0,
            "byteLength" : 208,
            "byteOffset" : 1808
        },
        {
            "buffer" : 0,
            "byteLength" : 96,
            "byteOffset" : 2016
        },
        {
            "buffer" : 0,
            "byteLength" : 1560,
            "byteOffset" : 2112
        },
        {
            "buffer" : 0,
            "byteLength" : 1040,
            "byteOffset" : 3672
        },
        {
            "buffer" : 0,
            "byteLength" : 744,
            "byteOffset" : 4712
        },
        {
            "buffer" : 0,
            "byteLength" : 1560,
            "byteOffset" : 5456
        },
        {
            "buffer" : 0,
            "byteLength" : 1040,
            "byteOffset" : 7016
        },
        {
            "buffer" : 0,
            "byteLength" : 744,
            "byteOffset" : 8056
        }
    ],
    "buffers" : [
        {
            "byteLength" : 8800,
            "uri" : "data:application/octet-stream;base64,"
        }
    ]
}
