{
    "asset" : {
        "generator" : "Khronos glTF Blender I/O v1.5.17",
        "version" : "2.0"
    },
    "scene" : 0,
    "scenes" : [
        {
            "name" : "Scene",
            "nodes" : [
                0,
                1,
                2
            ]
        }
    ],
    "nodes" : [
        {
            "name" : "Light",
            "rotation" : [
                0.16907575726509094,
                0.7558803558349609,
                -0.27217137813568115,
                0.570947527885437
            ],
            "translation" : [
                4.076245307922363,
                5.903861999511719,
                -1.0054539442062378
            ]
        },
        {
            "name" : "Camera",
            "rotation" : [
                0.483536034822464,
                0.33687159419059753,
                -0.20870360732078552,
                0.7804827094078064
            ],
            "translation" : [
                7.358891487121582,
                4.958309173583984,
                6.925790786743164
            ]
        },
        {
            "mesh" : 0,
            "name" : "cup",
            "scale" : [
                0.2624058127403259,
                0.26240572333335876,
                0.2624058127403259
            ]
        }
    ],
    "materials" : [
        {
            "doubleSided" : true,
            "name" : "cup",
            "pbrMetallicRoughness" : {
                "baseColorFactor" : [
                    0.800000011920929,
                    0.800000011920929,
                    0.800000011920929,
                    1
                ],
                "metallicFactor" : 0.30000001192092896,
                "roughnessFactor" : 0.20000000298023224
            }
        },
        {
            "doubleSided" : true,
            "name" : "totte",
            "pbrMetallicRoughness" : {
                "baseColorFactor" : [
                    0.800000011920929,
                    0.800000011920929,
                    0.800000011920929,
                    1
                ],
                "metallicFactor" : 0.30000001192092896,
                "roughnessFactor" : 0.800000011920929
            }
        },
        {
            "doubleSided" : true,
            "name" : "cofee",
            "pbrMetallicRoughness" : {
                "baseColorFactor" : [
                    0.033117473125457764,
                    0.01245173905044794,
                    0.004495059605687857,
                    1
                ],
                "metallicFactor" : 0,
                "roughnessFactor" : 0.5
            }
        }
    ],
    "meshes" : [
        {
            "name" : "\u5186",
            "primitives" : [
                {
                    "attributes" : {
                        "POSITION" : 0,
                        "NORMAL" : 1,
                        "TEXCOORD_0" : 2
                    },
                    "indices" : 3,
                    "material" : 0
                },
                {
                    "attributes" : {
                        "POSITION" : 4,
                        "NORMAL" : 5,
                        "TEXCOORD_0" : 6
                    },
                    "indices" : 7,
                    "material" : 1
                },
                {
                    "attributes" : {
                        "POSITION" : 8,
                        "NORMAL" : 9,
                        "TEXCOORD_0" : 10
                    },
                    "indices" : 11,
                    "material" : 2
                }
            ]
        }
    ],
    "accessors" : [
        {
            "bufferView" : 0,
            "componentType" : 5126,
            "count" : 288,
            "max" : [
                1.2201260328292847,
                2.3014230728149414,
                1.2201268672943115
            ],
            "min" : [
                -1.2201260328292847,
                -1.1789367704295728e-07,
                -1.2201251983642578
            ],
            "type" : "VEC3"
        },
        {
            "bufferView" : 1,
            "componentType" : 5126,
            "count" : 288,
            "type" : "VEC3"
        },
        {
            "bufferView" : 2,
            "componentType" : 5126,
            "count" : 288,
            "type" : "VEC2"
        },
        {
            "bufferView" : 3,
            "componentType" : 5123,
            "count" : 1626,
            "type" : "SCALAR"
        },
        {
            "bufferView" : 4,
            "componentType" : 5126,
            "count" : 376,
            "max" : [
                -0.9740574359893799,
                2.2236151695251465,
                0.186966210603714
            ],
            "min" : [
                -2.0535457134246826,
                0.40825366973876953,
                -0.1877010464668274
            ],
            "type" : "VEC3"
        },
        {
            "bufferView" : 5,
            "componentType" : 5126,
            "count" : 376,
            "type" : "VEC3"
        },
        {
            "bufferView" : 6,
            "componentType" : 5126,
            "count" : 376,
            "type" : "VEC2"
        },
        {
            "bufferView" : 7,
            "componentType" : 5123,
            "count" : 564,
            "type" : "SCALAR"
        },
        {
            "bufferView" : 8,
            "componentType" : 5126,
            "count" : 32,
            "max" : [
                1.0492788553237915,
                1.8972339630126953,
                1.0295912027359009
            ],
            "min" : [
                -0.9726389646530151,
                1.8972339630126953,
                -0.9923266172409058
            ],
            "type" : "VEC3"
        },
        {
            "bufferView" : 9,
            "componentType" : 5126,
            "count" : 32,
            "type" : "VEC3"
        },
        {
            "bufferView" : 10,
            "componentType" : 5126,
            "count" : 32,
            "type" : "VEC2"
        },
        {
            "bufferView" : 11,
            "componentType" : 5123,
            "count" : 90,
            "type" : "SCALAR"
        }
    ],
    "bufferViews" : [
        {
            "buffer" : 0,
            "byteLength" : 3456,
            "byteOffset" : 0
        },
        {
            "buffer" : 0,
            "byteLength" : 3456,
            "byteOffset" : 3456
        },
        {
            "buffer" : 0,
            "byteLength" : 2304,
            "byteOffset" : 6912
        },
        {
            "buffer" : 0,
            "byteLength" : 3252,
            "byteOffset" : 9216
        },
        {
            "buffer" : 0,
            "byteLength" : 4512,
            "byteOffset" : 12468
        },
        {
            "buffer" : 0,
            "byteLength" : 4512,
            "byteOffset" : 16980
        },
        {
            "buffer" : 0,
            "byteLength" : 3008,
            "byteOffset" : 21492
        },
        {
            "buffer" : 0,
            "byteLength" : 1128,
            "byteOffset" : 24500
        },
        {
            "buffer" : 0,
            "byteLength" : 384,
            "byteOffset" : 25628
        },
        {
            "buffer" : 0,
            "byteLength" : 384,
            "byteOffset" : 26012
        },
        {
            "buffer" : 0,
            "byteLength" : 256,
            "byteOffset" : 26396
        },
        {
            "buffer" : 0,
            "byteLength" : 180,
            "byteOffset" : 26652
        }
    ],
    "buffers" : [
        {
            "byteLength" : 26832,
            "uri" : "data:application/octet-stream;base64,"
        }
    ]
}
