{
    "asset" : {
        "generator" : "Khronos glTF Blender I/O v1.5.17",
        "version" : "2.0"
    },
    "scene" : 0,
    "scenes" : [
        {
            "name" : "Scene",
            "nodes" : [
                0,
                1,
                2
            ]
        }
    ],
    "nodes" : [
        {
            "name" : "Light",
            "rotation" : [
                0.16907575726509094,
                0.7558803558349609,
                -0.27217137813568115,
                0.570947527885437
            ],
            "translation" : [
                4.076245307922363,
                5.903861999511719,
                -1.0054539442062378
            ]
        },
        {
            "name" : "Camera",
            "rotation" : [
                0.483536034822464,
                0.33687159419059753,
                -0.20870360732078552,
                0.7804827094078064
            ],
            "translation" : [
                7.358891487121582,
                4.958309173583984,
                6.925790786743164
            ]
        },
        {
            "mesh" : 0,
            "name" : "curtain-right",
            "rotation" : [
                -0.7071068286895752,
                0,
                0,
                0.7071068286895752
            ],
            "scale" : [
                -3.184999942779541,
                3.1850242614746094,
                3.1850242614746094
            ],
            "translation" : [
                0,
                3.5,
                0
            ]
        }
    ],
    "materials" : [
        {
            "doubleSided" : true,
            "name" : "curtain",
            "pbrMetallicRoughness" : {
                "baseColorFactor" : [
                    0.6420913338661194,
                    0.6420913338661194,
                    0.6420913338661194,
                    1
                ],
                "metallicFactor" : 0
            }
        },
        {
            "doubleSided" : true,
            "name" : "curtain-joint",
            "pbrMetallicRoughness" : {
                "baseColorFactor" : [
                    0.5261273980140686,
                    0.5261273980140686,
                    0.5261273980140686,
                    1
                ],
                "metallicFactor" : 0
            }
        },
        {
            "doubleSided" : true,
            "name" : "\u30de\u30c6\u30ea\u30a2\u30eb.024",
            "pbrMetallicRoughness" : {
                "baseColorFactor" : [
                    0.4501175284385681,
                    0.4501175284385681,
                    0.4501175284385681,
                    1
                ],
                "roughnessFactor" : 0.5
            }
        },
        {
            "doubleSided" : true,
            "name" : "\u30de\u30c6\u30ea\u30a2\u30eb.020",
            "pbrMetallicRoughness" : {
                "baseColorFactor" : [
                    0.4501175284385681,
                    0.4501175284385681,
                    0.4501175284385681,
                    1
                ],
                "roughnessFactor" : 0.5
            }
        }
    ],
    "meshes" : [
        {
            "name" : "\u5e73\u9762.002",
            "primitives" : [
                {
                    "attributes" : {
                        "POSITION" : 0,
                        "NORMAL" : 1,
                        "TEXCOORD_0" : 2
                    },
                    "indices" : 3,
                    "material" : 0
                },
                {
                    "attributes" : {
                        "POSITION" : 4,
                        "NORMAL" : 5,
                        "TEXCOORD_0" : 6
                    },
                    "indices" : 7,
                    "material" : 1
                },
                {
                    "attributes" : {
                        "POSITION" : 8,
                        "NORMAL" : 9,
                        "TEXCOORD_0" : 10
                    },
                    "indices" : 11,
                    "material" : 2
                },
                {
                    "attributes" : {
                        "POSITION" : 12,
                        "NORMAL" : 13,
                        "TEXCOORD_0" : 14
                    },
                    "indices" : 15,
                    "material" : 3
                }
            ]
        }
    ],
    "accessors" : [
        {
            "bufferView" : 0,
            "componentType" : 5126,
            "count" : 3920,
            "max" : [
                1.6481631994247437,
                0.06568892300128937,
                1.011267900466919
            ],
            "min" : [
                -1.647575855255127,
                -0.10337373614311218,
                -1.086852788925171
            ],
            "type" : "VEC3"
        },
        {
            "bufferView" : 1,
            "componentType" : 5126,
            "count" : 3920,
            "type" : "VEC3"
        },
        {
            "bufferView" : 2,
            "componentType" : 5126,
            "count" : 3920,
            "type" : "VEC2"
        },
        {
            "bufferView" : 3,
            "componentType" : 5123,
            "count" : 5880,
            "type" : "SCALAR"
        },
        {
            "bufferView" : 4,
            "componentType" : 5126,
            "count" : 528,
            "max" : [
                1.6076972484588623,
                0.07452946901321411,
                -0.09685578942298889
            ],
            "min" : [
                -1.607109546661377,
                0.0037580206990242004,
                -0.20865359902381897
            ],
            "type" : "VEC3"
        },
        {
            "bufferView" : 5,
            "componentType" : 5126,
            "count" : 528,
            "type" : "VEC3"
        },
        {
            "bufferView" : 6,
            "componentType" : 5126,
            "count" : 528,
            "type" : "VEC2"
        },
        {
            "bufferView" : 7,
            "componentType" : 5123,
            "count" : 792,
            "type" : "SCALAR"
        },
        {
            "bufferView" : 8,
            "componentType" : 5126,
            "count" : 182,
            "max" : [
                1.6402101516723633,
                0.05885012447834015,
                1.0708173513412476
            ],
            "min" : [
                -1.661329984664917,
                -0.1201954036951065,
                1.0102392435073853
            ],
            "type" : "VEC3"
        },
        {
            "bufferView" : 9,
            "componentType" : 5126,
            "count" : 182,
            "type" : "VEC3"
        },
        {
            "bufferView" : 10,
            "componentType" : 5126,
            "count" : 182,
            "type" : "VEC2"
        },
        {
            "bufferView" : 11,
            "componentType" : 5123,
            "count" : 360,
            "type" : "SCALAR"
        },
        {
            "bufferView" : 12,
            "componentType" : 5126,
            "count" : 72,
            "max" : [
                1.2605103254318237,
                0.11483678221702576,
                1.0797091722488403
            ],
            "min" : [
                -1.2082884311676025,
                -0.10330168902873993,
                1.0706099271774292
            ],
            "type" : "VEC3"
        },
        {
            "bufferView" : 13,
            "componentType" : 5126,
            "count" : 72,
            "type" : "VEC3"
        },
        {
            "bufferView" : 14,
            "componentType" : 5126,
            "count" : 72,
            "type" : "VEC2"
        },
        {
            "bufferView" : 15,
            "componentType" : 5123,
            "count" : 108,
            "type" : "SCALAR"
        }
    ],
    "bufferViews" : [
        {
            "buffer" : 0,
            "byteLength" : 47040,
            "byteOffset" : 0
        },
        {
            "buffer" : 0,
            "byteLength" : 47040,
            "byteOffset" : 47040
        },
        {
            "buffer" : 0,
            "byteLength" : 31360,
            "byteOffset" : 94080
        },
        {
            "buffer" : 0,
            "byteLength" : 11760,
            "byteOffset" : 125440
        },
        {
            "buffer" : 0,
            "byteLength" : 6336,
            "byteOffset" : 137200
        },
        {
            "buffer" : 0,
            "byteLength" : 6336,
            "byteOffset" : 143536
        },
        {
            "buffer" : 0,
            "byteLength" : 4224,
            "byteOffset" : 149872
        },
        {
            "buffer" : 0,
            "byteLength" : 1584,
            "byteOffset" : 154096
        },
        {
            "buffer" : 0,
            "byteLength" : 2184,
            "byteOffset" : 155680
        },
        {
            "buffer" : 0,
            "byteLength" : 2184,
            "byteOffset" : 157864
        },
        {
            "buffer" : 0,
            "byteLength" : 1456,
            "byteOffset" : 160048
        },
        {
            "buffer" : 0,
            "byteLength" : 720,
            "byteOffset" : 161504
        },
        {
            "buffer" : 0,
            "byteLength" : 864,
            "byteOffset" : 162224
        },
        {
            "buffer" : 0,
            "byteLength" : 864,
            "byteOffset" : 163088
        },
        {
            "buffer" : 0,
            "byteLength" : 576,
            "byteOffset" : 163952
        },
        {
            "buffer" : 0,
            "byteLength" : 216,
            "byteOffset" : 164528
        }
    ],
    "buffers" : [
        {
            "byteLength" : 164744,
            "uri" : "data:application/octet-stream;base64,"
        }
    ]
}
