{
    "asset" : {
        "generator" : "Khronos glTF Blender I/O v1.5.17",
        "version" : "2.0"
    },
    "scene" : 0,
    "scenes" : [
        {
            "name" : "Scene",
            "nodes" : [
                0,
                1,
                2
            ]
        }
    ],
    "nodes" : [
        {
            "name" : "Light",
            "rotation" : [
                0.16907575726509094,
                0.7558803558349609,
                -0.27217137813568115,
                0.570947527885437
            ],
            "translation" : [
                4.076245307922363,
                5.903861999511719,
                -1.0054539442062378
            ]
        },
        {
            "name" : "Camera",
            "rotation" : [
                0.483536034822464,
                0.33687159419059753,
                -0.20870360732078552,
                0.7804827094078064
            ],
            "translation" : [
                7.358891487121582,
                4.958309173583984,
                6.925790786743164
            ]
        },
        {
            "mesh" : 0,
            "name" : "\u5186\u67f1",
            "scale" : [
                1.1998169422149658,
                0.19399525225162506,
                1.1998169422149658
            ],
            "translation" : [
                0,
                3.919396162033081,
                0
            ]
        }
    ],
    "materials" : [
        {
            "doubleSided" : true,
            "name" : "light-cover",
            "pbrMetallicRoughness" : {
                "baseColorFactor" : [
                    0.800000011920929,
                    0.800000011920929,
                    0.800000011920929,
                    1
                ],
                "metallicFactor" : 0.5,
                "roughnessFactor" : 0.30000001192092896
            }
        },
        {
            "doubleSided" : true,
            "name" : "light-light",
            "pbrMetallicRoughness" : {
                "metallicFactor" : 0,
                "roughnessFactor" : 0.10000000149011612
            }
        },
        {
            "doubleSided" : true,
            "name" : "light-himo",
            "pbrMetallicRoughness" : {
                "baseColorFactor" : [
                    0.07547350972890854,
                    0.02069688029587269,
                    0.01372971385717392,
                    1
                ],
                "metallicFactor" : 0,
                "roughnessFactor" : 0.5
            }
        },
        {
            "doubleSided" : true,
            "name" : "light-en",
            "pbrMetallicRoughness" : {
                "baseColorFactor" : [
                    0.7221134305000305,
                    0.7221134305000305,
                    0.7221134305000305,
                    1
                ],
                "metallicFactor" : 0,
                "roughnessFactor" : 0.5
            }
        }
    ],
    "meshes" : [
        {
            "name" : "\u5186\u67f1.003",
            "primitives" : [
                {
                    "attributes" : {
                        "POSITION" : 0,
                        "NORMAL" : 1,
                        "TEXCOORD_0" : 2
                    },
                    "indices" : 3,
                    "material" : 0
                },
                {
                    "attributes" : {
                        "POSITION" : 4,
                        "NORMAL" : 5,
                        "TEXCOORD_0" : 6
                    },
                    "indices" : 7,
                    "material" : 1
                },
                {
                    "attributes" : {
                        "POSITION" : 8,
                        "NORMAL" : 9,
                        "TEXCOORD_0" : 10
                    },
                    "indices" : 11,
                    "material" : 2
                },
                {
                    "attributes" : {
                        "POSITION" : 12,
                        "NORMAL" : 13,
                        "TEXCOORD_0" : 14
                    },
                    "indices" : 15,
                    "material" : 3
                }
            ]
        }
    ],
    "accessors" : [
        {
            "bufferView" : 0,
            "componentType" : 5126,
            "count" : 296,
            "max" : [
                1.6625688076019287,
                1.891932487487793,
                1.6625690460205078
            ],
            "min" : [
                -1.6625686883926392,
                -4.020837783813477,
                -1.6625691652297974
            ],
            "type" : "VEC3"
        },
        {
            "bufferView" : 1,
            "componentType" : 5126,
            "count" : 296,
            "type" : "VEC3"
        },
        {
            "bufferView" : 2,
            "componentType" : 5126,
            "count" : 296,
            "type" : "VEC2"
        },
        {
            "bufferView" : 3,
            "componentType" : 5123,
            "count" : 1440,
            "type" : "SCALAR"
        },
        {
            "bufferView" : 4,
            "componentType" : 5126,
            "count" : 17284,
            "max" : [
                1.3221157789230347,
                0.6440097093582153,
                1.3221198320388794
            ],
            "min" : [
                -1.322119951248169,
                -2.9642579555511475,
                -1.3221161365509033
            ],
            "type" : "VEC3"
        },
        {
            "bufferView" : 5,
            "componentType" : 5126,
            "count" : 17284,
            "type" : "VEC3"
        },
        {
            "bufferView" : 6,
            "componentType" : 5126,
            "count" : 17284,
            "type" : "VEC2"
        },
        {
            "bufferView" : 7,
            "componentType" : 5123,
            "count" : 98304,
            "type" : "SCALAR"
        },
        {
            "bufferView" : 8,
            "componentType" : 5126,
            "count" : 130,
            "max" : [
                0.004878439009189606,
                1.3903875350952148,
                0.004879338666796684
            ],
            "min" : [
                -0.004879791289567947,
                -19.95491600036621,
                -0.004878891631960869
            ],
            "type" : "VEC3"
        },
        {
            "bufferView" : 9,
            "componentType" : 5126,
            "count" : 130,
            "type" : "VEC3"
        },
        {
            "bufferView" : 10,
            "componentType" : 5126,
            "count" : 130,
            "type" : "VEC2"
        },
        {
            "bufferView" : 11,
            "componentType" : 5123,
            "count" : 372,
            "type" : "SCALAR"
        },
        {
            "bufferView" : 12,
            "componentType" : 5126,
            "count" : 559,
            "max" : [
                0.03692995384335518,
                -19.87958335876465,
                0.03693293780088425
            ],
            "min" : [
                -0.03693218156695366,
                -20.33640480041504,
                -0.03692924231290817
            ],
            "type" : "VEC3"
        },
        {
            "bufferView" : 13,
            "componentType" : 5126,
            "count" : 559,
            "type" : "VEC3"
        },
        {
            "bufferView" : 14,
            "componentType" : 5126,
            "count" : 559,
            "type" : "VEC2"
        },
        {
            "bufferView" : 15,
            "componentType" : 5123,
            "count" : 2880,
            "type" : "SCALAR"
        }
    ],
    "bufferViews" : [
        {
            "buffer" : 0,
            "byteLength" : 3552,
            "byteOffset" : 0
        },
        {
            "buffer" : 0,
            "byteLength" : 3552,
            "byteOffset" : 3552
        },
        {
            "buffer" : 0,
            "byteLength" : 2368,
            "byteOffset" : 7104
        },
        {
            "buffer" : 0,
            "byteLength" : 2880,
            "byteOffset" : 9472
        },
        {
            "buffer" : 0,
            "byteLength" : 207408,
            "byteOffset" : 12352
        },
        {
            "buffer" : 0,
            "byteLength" : 207408,
            "byteOffset" : 219760
        },
        {
            "buffer" : 0,
            "byteLength" : 138272,
            "byteOffset" : 427168
        },
        {
            "buffer" : 0,
            "byteLength" : 196608,
            "byteOffset" : 565440
        },
        {
            "buffer" : 0,
            "byteLength" : 1560,
            "byteOffset" : 762048
        },
        {
            "buffer" : 0,
            "byteLength" : 1560,
            "byteOffset" : 763608
        },
        {
            "buffer" : 0,
            "byteLength" : 1040,
            "byteOffset" : 765168
        },
        {
            "buffer" : 0,
            "byteLength" : 744,
            "byteOffset" : 766208
        },
        {
            "buffer" : 0,
            "byteLength" : 6708,
            "byteOffset" : 766952
        },
        {
            "buffer" : 0,
            "byteLength" : 6708,
            "byteOffset" : 773660
        },
        {
            "buffer" : 0,
            "byteLength" : 4472,
            "byteOffset" : 780368
        },
        {
            "buffer" : 0,
            "byteLength" : 5760,
            "byteOffset" : 784840
        }
    ],
    "buffers" : [
        {
            "byteLength" : 790600,
            "uri" : "data:application/octet-stream;base64,"
        }
    ]
}
