{
    "asset" : {
        "generator" : "Khronos glTF Blender I/O v1.6.16",
        "version" : "2.0"
    },
    "scene" : 0,
    "scenes" : [
        {
            "name" : "Scene",
            "nodes" : [
                0,
                1,
                2,
                3,
                4,
                5,
                6
            ]
        }
    ],
    "nodes" : [
        {
            "name" : "Light",
            "rotation" : [
                0.16907575726509094,
                0.7558803558349609,
                -0.27217137813568115,
                0.570947527885437
            ],
            "translation" : [
                -6.903753757476807,
                11.663862228393555,
                3.4445459842681885
            ]
        },
        {
            "name" : "Camera",
            "rotation" : [
                0.7136374115943909,
                0.18668149411678314,
                -0.20733077824115753,
                0.6425617933273315
            ],
            "translation" : [
                13.542813301086426,
                3.1091465950012207,
                20.727697372436523
            ]
        },
        {
            "mesh" : 0,
            "name" : "torii"
        },
        {
            "mesh" : 1,
            "name" : "\u5e73\u9762",
            "translation" : [
                -99.1551284790039,
                0.3122136890888214,
                28.884323120117188
            ]
        },
        {
            "name" : "\u30b5\u30f3",
            "rotation" : [
                0.38247087597846985,
                -0.10767245292663574,
                0.04492999240756035,
                0.9165719747543335
            ]
        },
        {
            "name" : "Light.001",
            "rotation" : [
                0.16907575726509094,
                0.7558803558349609,
                -0.27217137813568115,
                0.570947527885437
            ],
            "translation" : [
                4.076245307922363,
                5.903861999511719,
                -1.0054539442062378
            ]
        },
        {
            "name" : "Light.002",
            "rotation" : [
                0.16907575726509094,
                0.7558803558349609,
                -0.27217137813568115,
                0.570947527885437
            ],
            "translation" : [
                -3.283754348754883,
                4.883862495422363,
                -0.4054539203643799
            ]
        }
    ],
    "materials" : [
        {
            "doubleSided" : true,
            "name" : "orange",
            "normalTexture" : {
                "index" : 0
            },
            "pbrMetallicRoughness" : {
                "baseColorFactor" : [
                    1,
                    0.04993788152933121,
                    0,
                    1
                ],
                "metallicFactor" : 0,
                "roughnessFactor" : 0.5
            }
        },
        {
            "doubleSided" : true,
            "name" : "brown",
            "normalTexture" : {
                "index" : 1
            },
            "pbrMetallicRoughness" : {
                "baseColorFactor" : [
                    0.0396793968975544,
                    0.0036297673359513283,
                    0,
                    1
                ],
                "metallicFactor" : 0,
                "roughnessFactor" : 0.5
            }
        },
        {
            "doubleSided" : true,
            "name" : "gakubuti",
            "normalTexture" : {
                "index" : 2
            },
            "pbrMetallicRoughness" : {
                "baseColorTexture" : {
                    "index" : 3
                },
                "metallicFactor" : 0,
                "roughnessFactor" : 0.5
            }
        },
        {
            "doubleSided" : true,
            "name" : "\u30de\u30c6\u30ea\u30a2\u30eb",
            "pbrMetallicRoughness" : {
                "baseColorFactor" : [
                    0.800000011920929,
                    0.800000011920929,
                    0.800000011920929,
                    1
                ],
                "metallicFactor" : 0,
                "roughnessFactor" : 0.10000000149011612
            }
        }
    ],
    "meshes" : [
        {
            "name" : "\u5186",
            "primitives" : [
                {
                    "attributes" : {
                        "POSITION" : 0,
                        "NORMAL" : 1,
                        "TEXCOORD_0" : 2
                    },
                    "indices" : 3,
                    "material" : 0
                },
                {
                    "attributes" : {
                        "POSITION" : 4,
                        "NORMAL" : 5,
                        "TEXCOORD_0" : 6
                    },
                    "indices" : 7,
                    "material" : 1
                },
                {
                    "attributes" : {
                        "POSITION" : 8,
                        "NORMAL" : 9,
                        "TEXCOORD_0" : 10
                    },
                    "indices" : 11,
                    "material" : 2
                }
            ]
        },
        {
            "name" : "\u5e73\u9762",
            "primitives" : [
                {
                    "attributes" : {
                        "POSITION" : 12,
                        "NORMAL" : 13,
                        "TEXCOORD_0" : 14
                    },
                    "indices" : 15,
                    "material" : 3
                }
            ]
        }
    ],
    "textures" : [
        {
            "sampler" : 0,
            "source" : 0
        },
        {
            "sampler" : 0,
            "source" : 0
        },
        {
            "sampler" : 0,
            "source" : 0
        },
        {
            "sampler" : 0,
            "source" : 0
        }
    ],
    "images" : [
        {
            "bufferView" : 4,
            "mimeType" : "image/jpeg",
            "name" : "wood-texture_00018"
        }
    ],
    "accessors" : [
        {
            "bufferView" : 0,
            "componentType" : 5126,
            "count" : 1424,
            "max" : [
                4.933407783508301,
                8.160985946655273,
                3.2752139568328857
            ],
            "min" : [
                -4.688556671142578,
                2.384185791015625e-07,
                -3.2752130031585693
            ],
            "type" : "VEC3"
        },
        {
            "bufferView" : 1,
            "componentType" : 5126,
            "count" : 1424,
            "type" : "VEC3"
        },
        {
            "bufferView" : 2,
            "componentType" : 5126,
            "count" : 1424,
            "type" : "VEC2"
        },
        {
            "bufferView" : 3,
            "componentType" : 5123,
            "count" : 2472,
            "type" : "SCALAR"
        },
        {
            "bufferView" : 5,
            "componentType" : 5126,
            "count" : 532,
            "max" : [
                7.4484405517578125,
                9.961061477661133,
                3.3131561279296875
            ],
            "min" : [
                -7.281398773193359,
                3.751652240753174,
                -3.2818362712860107
            ],
            "type" : "VEC3"
        },
        {
            "bufferView" : 6,
            "componentType" : 5126,
            "count" : 532,
            "type" : "VEC3"
        },
        {
            "bufferView" : 7,
            "componentType" : 5126,
            "count" : 532,
            "type" : "VEC2"
        },
        {
            "bufferView" : 8,
            "componentType" : 5123,
            "count" : 996,
            "type" : "SCALAR"
        },
        {
            "bufferView" : 9,
            "componentType" : 5126,
            "count" : 48,
            "max" : [
                0.6900675892829895,
                7.897411346435547,
                0.45801079273223877
            ],
            "min" : [
                -0.5230256915092468,
                5.823051452636719,
                -0.5175030827522278
            ],
            "type" : "VEC3"
        },
        {
            "bufferView" : 10,
            "componentType" : 5126,
            "count" : 48,
            "type" : "VEC3"
        },
        {
            "bufferView" : 11,
            "componentType" : 5126,
            "count" : 48,
            "type" : "VEC2"
        },
        {
            "bufferView" : 12,
            "componentType" : 5123,
            "count" : 72,
            "type" : "SCALAR"
        },
        {
            "bufferView" : 13,
            "componentType" : 5126,
            "count" : 4,
            "max" : [
                1,
                0,
                1
            ],
            "min" : [
                -1,
                0,
                -1
            ],
            "type" : "VEC3"
        },
        {
            "bufferView" : 14,
            "componentType" : 5126,
            "count" : 4,
            "type" : "VEC3"
        },
        {
            "bufferView" : 15,
            "componentType" : 5126,
            "count" : 4,
            "type" : "VEC2"
        },
        {
            "bufferView" : 16,
            "componentType" : 5123,
            "count" : 6,
            "type" : "SCALAR"
        }
    ],
    "bufferViews" : [
        {
            "buffer" : 0,
            "byteLength" : 17088,
            "byteOffset" : 0
        },
        {
            "buffer" : 0,
            "byteLength" : 17088,
            "byteOffset" : 17088
        },
        {
            "buffer" : 0,
            "byteLength" : 11392,
            "byteOffset" : 34176
        },
        {
            "buffer" : 0,
            "byteLength" : 4944,
            "byteOffset" : 45568
        },
        {
            "buffer" : 0,
            "byteLength" : 273627,
            "byteOffset" : 50512
        },
        {
            "buffer" : 0,
            "byteLength" : 6384,
            "byteOffset" : 324140
        },
        {
            "buffer" : 0,
            "byteLength" : 6384,
            "byteOffset" : 330524
        },
        {
            "buffer" : 0,
            "byteLength" : 4256,
            "byteOffset" : 336908
        },
        {
            "buffer" : 0,
            "byteLength" : 1992,
            "byteOffset" : 341164
        },
        {
            "buffer" : 0,
            "byteLength" : 576,
            "byteOffset" : 343156
        },
        {
            "buffer" : 0,
            "byteLength" : 576,
            "byteOffset" : 343732
        },
        {
            "buffer" : 0,
            "byteLength" : 384,
            "byteOffset" : 344308
        },
        {
            "buffer" : 0,
            "byteLength" : 144,
            "byteOffset" : 344692
        },
        {
            "buffer" : 0,
            "byteLength" : 48,
            "byteOffset" : 344836
        },
        {
            "buffer" : 0,
            "byteLength" : 48,
            "byteOffset" : 344884
        },
        {
            "buffer" : 0,
            "byteLength" : 32,
            "byteOffset" : 344932
        },
        {
            "buffer" : 0,
            "byteLength" : 12,
            "byteOffset" : 344964
        }
    ],
    "samplers" : [
        {
            "magFilter" : 9729,
            "minFilter" : 9987
        }
    ],
    "buffers" : [
        {
            "byteLength" : 344976,
            "uri" : "data:application/octet-stream;base64,"
        }
    ]
}
