{
    "asset" : {
        "generator" : "Khronos glTF Blender I/O v1.5.17",
        "version" : "2.0"
    },
    "scene" : 0,
    "scenes" : [
        {
            "name" : "Scene",
            "nodes" : [
                0,
                1,
                2
            ]
        }
    ],
    "nodes" : [
        {
            "name" : "Light",
            "rotation" : [
                0.16907575726509094,
                0.7558803558349609,
                -0.27217137813568115,
                0.570947527885437
            ],
            "translation" : [
                4.076245307922363,
                5.903861999511719,
                -1.0054539442062378
            ]
        },
        {
            "name" : "Camera",
            "rotation" : [
                0.483536034822464,
                0.33687159419059753,
                -0.20870360732078552,
                0.7804827094078064
            ],
            "translation" : [
                7.358891487121582,
                4.958309173583984,
                6.925790786743164
            ]
        },
        {
            "mesh" : 0,
            "name" : "stand-light",
            "scale" : [
                0.29911261796951294,
                0.040855757892131805,
                0.29911261796951294
            ]
        }
    ],
    "materials" : [
        {
            "doubleSided" : true,
            "name" : "\u30de\u30c6\u30ea\u30a2\u30eb.011",
            "pbrMetallicRoughness" : {
                "baseColorFactor" : [
                    0.800000011920929,
                    0.800000011920929,
                    0.800000011920929,
                    1
                ],
                "metallicFactor" : 0,
                "roughnessFactor" : 0.10000000149011612
            }
        },
        {
            "doubleSided" : true,
            "name" : "\u30de\u30c6\u30ea\u30a2\u30eb.012",
            "pbrMetallicRoughness" : {
                "baseColorFactor" : [
                    0.06372083723545074,
                    0.06372083723545074,
                    0.06372083723545074,
                    1
                ],
                "metallicFactor" : 0,
                "roughnessFactor" : 0.5
            }
        }
    ],
    "meshes" : [
        {
            "name" : "\u5186\u67f1.001",
            "primitives" : [
                {
                    "attributes" : {
                        "POSITION" : 0,
                        "NORMAL" : 1,
                        "TEXCOORD_0" : 2
                    },
                    "indices" : 3,
                    "material" : 0
                },
                {
                    "attributes" : {
                        "POSITION" : 4,
                        "NORMAL" : 5,
                        "TEXCOORD_0" : 6
                    },
                    "indices" : 7,
                    "material" : 1
                }
            ]
        }
    ],
    "accessors" : [
        {
            "bufferView" : 0,
            "componentType" : 5126,
            "count" : 2430,
            "max" : [
                0.9088426828384399,
                64.02855682373047,
                6.495283603668213
            ],
            "min" : [
                -0.9087894558906555,
                -0.8830505609512329,
                -1.6249891519546509
            ],
            "type" : "VEC3"
        },
        {
            "bufferView" : 1,
            "componentType" : 5126,
            "count" : 2430,
            "type" : "VEC3"
        },
        {
            "bufferView" : 2,
            "componentType" : 5126,
            "count" : 2430,
            "type" : "VEC2"
        },
        {
            "bufferView" : 3,
            "componentType" : 5123,
            "count" : 4776,
            "type" : "SCALAR"
        },
        {
            "bufferView" : 4,
            "componentType" : 5126,
            "count" : 192,
            "max" : [
                0.5203220248222351,
                29.38448143005371,
                -0.9085420966148376
            ],
            "min" : [
                -0.5158063769340515,
                25.673934936523438,
                -1.415365219116211
            ],
            "type" : "VEC3"
        },
        {
            "bufferView" : 5,
            "componentType" : 5126,
            "count" : 192,
            "type" : "VEC3"
        },
        {
            "bufferView" : 6,
            "componentType" : 5126,
            "count" : 192,
            "type" : "VEC2"
        },
        {
            "bufferView" : 7,
            "componentType" : 5123,
            "count" : 372,
            "type" : "SCALAR"
        }
    ],
    "bufferViews" : [
        {
            "buffer" : 0,
            "byteLength" : 29160,
            "byteOffset" : 0
        },
        {
            "buffer" : 0,
            "byteLength" : 29160,
            "byteOffset" : 29160
        },
        {
            "buffer" : 0,
            "byteLength" : 19440,
            "byteOffset" : 58320
        },
        {
            "buffer" : 0,
            "byteLength" : 9552,
            "byteOffset" : 77760
        },
        {
            "buffer" : 0,
            "byteLength" : 2304,
            "byteOffset" : 87312
        },
        {
            "buffer" : 0,
            "byteLength" : 2304,
            "byteOffset" : 89616
        },
        {
            "buffer" : 0,
            "byteLength" : 1536,
            "byteOffset" : 91920
        },
        {
            "buffer" : 0,
            "byteLength" : 744,
            "byteOffset" : 93456
        }
    ],
    "buffers" : [
        {
            "byteLength" : 94200,
            "uri" : "data:application/octet-stream;base64,"
        }
    ]
}
