{
    "asset" : {
        "generator" : "Khronos glTF Blender I/O v1.5.17",
        "version" : "2.0"
    },
    "scene" : 0,
    "scenes" : [
        {
            "name" : "Scene",
            "nodes" : [
                0,
                1,
                2
            ]
        }
    ],
    "nodes" : [
        {
            "name" : "Light",
            "rotation" : [
                0.16907575726509094,
                0.7558803558349609,
                -0.27217137813568115,
                0.570947527885437
            ],
            "translation" : [
                4.076245307922363,
                5.903861999511719,
                -1.0054539442062378
            ]
        },
        {
            "name" : "Camera",
            "rotation" : [
                0.483536034822464,
                0.33687159419059753,
                -0.20870360732078552,
                0.7804827094078064
            ],
            "translation" : [
                7.358891487121582,
                4.958309173583984,
                6.925790786743164
            ]
        },
        {
            "mesh" : 0,
            "name" : "tray",
            "scale" : [
                0.33781322836875916,
                0.33781322836875916,
                0.33781322836875916
            ]
        }
    ],
    "materials" : [
        {
            "doubleSided" : true,
            "name" : "\u30de\u30c6\u30ea\u30a2\u30eb.019",
            "pbrMetallicRoughness" : {
                "baseColorFactor" : [
                    0.553074061870575,
                    0.553074061870575,
                    0.553074061870575,
                    1
                ],
                "roughnessFactor" : 0.5
            }
        }
    ],
    "meshes" : [
        {
            "name" : "\u5186.001",
            "primitives" : [
                {
                    "attributes" : {
                        "POSITION" : 0,
                        "NORMAL" : 1,
                        "TEXCOORD_0" : 2
                    },
                    "indices" : 3,
                    "material" : 0
                }
            ]
        }
    ],
    "accessors" : [
        {
            "bufferView" : 0,
            "componentType" : 5126,
            "count" : 876,
            "max" : [
                1.441239595413208,
                0.14679518342018127,
                1.437605619430542
            ],
            "min" : [
                -1.4420310258865356,
                -0.20223599672317505,
                -1.4491931200027466
            ],
            "type" : "VEC3"
        },
        {
            "bufferView" : 1,
            "componentType" : 5126,
            "count" : 876,
            "type" : "VEC3"
        },
        {
            "bufferView" : 2,
            "componentType" : 5126,
            "count" : 876,
            "type" : "VEC2"
        },
        {
            "bufferView" : 3,
            "componentType" : 5123,
            "count" : 1470,
            "type" : "SCALAR"
        }
    ],
    "bufferViews" : [
        {
            "buffer" : 0,
            "byteLength" : 10512,
            "byteOffset" : 0
        },
        {
            "buffer" : 0,
            "byteLength" : 10512,
            "byteOffset" : 10512
        },
        {
            "buffer" : 0,
            "byteLength" : 7008,
            "byteOffset" : 21024
        },
        {
            "buffer" : 0,
            "byteLength" : 2940,
            "byteOffset" : 28032
        }
    ],
    "buffers" : [
        {
            "byteLength" : 30972,
            "uri" : "data:application/octet-stream;base64,"
        }
    ]
}
